# xmcd
#
# Track frame offsets: 
#        150
#        23775
#        31020
#        50142
#        67282
#        84337
#        102902
#        128845
#        146482
#        164387
#        179855
#        199432
#        217317
#
# Disc length: 3207 seconds
#
# Revision: 4
# Processed by: cddbd v1.5.2PL0 Copyright (c) Steve Scherf et al.
# Submitted via: ExactAudioCopy v1.0b3
#
DISCID=cb0c850d
DTITLE=Patti Austin - The Real Me
DYEAR=1988
DGENRE=Blues
TTITLE0=I Can Cook Too
TTITLE1=Stockholm Sweetnin'
TTITLE2=Smoke Gets In Your Eyes
TTITLE3=True Love
TTITLE4=Across The Alley From The Alamo
TTITLE5=How Long Has This Been Going On?
TTITLE6=Lazy Afternoon
TTITLE7=Love Letters
TTITLE8=They Can't Take That Away From Me
TTITLE9=Mood Indigo
TTITLE10=Cry Me A River
TTITLE11=Someone Is Standing Outside
TTITLE12=Spring Can Really Hang You Up The Most
EXTD=YEAR: 1988
EXTT0=
EXTT1=
EXTT2=
EXTT3=
EXTT4=
EXTT5=
EXTT6=
EXTT7=
EXTT8=
EXTT9=
EXTT10=
EXTT11=
EXTT12=
PLAYORDER=
